# xmcd
#
# Track frame offsets: 
#        150
#        19458
#        31328
#        35578
#        60443
#        79328
#        104403
#        122303
#        146260
#        162503
#        187428
#
# Disc length: 2919 seconds
#
# Revision: 5
# Processed by: cddbd v1.5.2PL0 Copyright (c) Steve Scherf et al.
# Submitted via: ExactAudioCopy v0.99pb4
#
DISCID=960b650b
DTITLE=My Bloody Valentine - Loveless
DYEAR=1991
DGENRE=Rock
TTITLE0=Only Shallow
TTITLE1=Loomer
TTITLE2=Touched
TTITLE3=To Here Knows When
TTITLE4=When You Sleep
TTITLE5=I Only Said
TTITLE6=Come in Alone
TTITLE7=Sometimes
TTITLE8=Blown a Wish
TTITLE9=What You Want
TTITLE10=Soon
EXTD=
EXTT0=
EXTT1=
EXTT2=
EXTT3=
EXTT4=
EXTT5=
EXTT6=
EXTT7=
EXTT8=
EXTT9=
EXTT10=
PLAYORDER=
